<svg width="15" height="16" viewBox="0 0 15 16" fill="none" xmlns="http://www.w3.org/2000/svg">
<path d="M12.2051 8.45511C12.1977 7.14416 12.8151 6.15469 14.0648 5.42599C13.3656 4.4651 12.3092 3.93643 10.9145 3.83284C9.59405 3.73282 8.1509 4.57226 7.62274 4.57226C7.06483 4.57226 5.78534 3.86856 4.78108 3.86856C2.70563 3.90071 0.5 5.45814 0.5 8.62657C0.5 9.56245 0.678533 10.5293 1.0356 11.5271C1.51169 12.838 3.23007 16.0529 5.02285 15.9993C5.96015 15.9779 6.62221 15.3599 7.84219 15.3599C9.02497 15.3599 9.63868 15.9993 10.6838 15.9993C12.4915 15.9743 14.0462 13.0524 14.5 11.7379C12.0749 10.6412 12.2051 8.52298 12.2051 8.45511ZM10.0999 2.58976C11.1153 1.4324 11.0223 0.37864 10.9926 0C10.0962 0.0500091 9.05845 0.585821 8.46706 1.24666C7.81615 1.95393 7.43305 2.82909 7.51488 3.81498C8.48565 3.88642 9.37088 3.40776 10.0999 2.58976Z" fill="#B1A8B9"/>
</svg>
