<svg width="16" height="16" viewBox="0 0 16 16" fill="none" xmlns="http://www.w3.org/2000/svg">
<path d="M5.49437 0.438688C3.84373 0.999797 2.42021 2.0648 1.43293 3.47727C0.445636 4.88973 -0.0533918 6.57521 0.00914159 8.28613C0.071675 9.99705 0.692473 11.6432 1.78035 12.9829C2.86823 14.3225 4.36584 15.285 6.05322 15.729C7.42122 16.0748 8.85447 16.09 10.2298 15.7732C11.4757 15.499 12.6275 14.9124 13.5726 14.0709C14.5562 13.1684 15.2701 12.0202 15.6376 10.7498C16.037 9.36832 16.1081 7.91554 15.8454 6.50294H8.16344V9.62549H12.6123C12.5234 10.1235 12.3329 10.5988 12.0521 11.023C11.7714 11.4472 11.4062 11.8115 10.9784 12.0942C10.4352 12.4465 9.82274 12.6834 9.18048 12.7898C8.53637 12.9072 7.8757 12.9072 7.23159 12.7898C6.57872 12.6577 5.96112 12.3936 5.41822 12.0145C4.54593 11.4095 3.89096 10.5499 3.54677 9.55847C3.19686 8.54845 3.19686 7.45352 3.54677 6.4435C3.79177 5.73554 4.19679 5.09094 4.73159 4.55783C5.34361 3.93654 6.11844 3.49244 6.97108 3.27425C7.82371 3.05606 8.72121 3.07222 9.56509 3.32095C10.2244 3.51916 10.8272 3.86563 11.3255 4.33271C11.8272 3.84369 12.328 3.35341 12.8279 2.86186C13.086 2.59754 13.3674 2.34586 13.6216 2.07521C12.8608 1.38155 11.9678 0.841754 10.9938 0.486747C9.22011 -0.144353 7.27931 -0.161313 5.49437 0.438688Z" fill="white"/>
<path d="M5.4916 0.43857C7.2764 -0.161839 9.21719 -0.145325 10.9911 0.485364C11.9653 0.842783 12.8578 1.38518 13.6176 2.08142C13.3594 2.35207 13.0871 2.60501 12.8238 2.86807C12.323 3.35793 11.8227 3.8461 11.3228 4.33259C10.8244 3.86551 10.2216 3.51904 9.56233 3.32083C8.71872 3.07123 7.82126 3.05414 6.96839 3.27143C6.11553 3.48873 5.34022 3.93201 4.72753 4.55265C4.19273 5.08577 3.78771 5.73036 3.54271 6.43832L0.867188 4.40847C1.82486 2.54754 3.48302 1.12407 5.4916 0.43857Z" fill="#E33629"/>
<path d="M0.160037 6.41933C0.303738 5.72092 0.542492 5.04458 0.869897 4.40845L3.54542 6.44336C3.19551 7.45337 3.19551 8.5483 3.54542 9.55832C2.65401 10.2328 1.76217 10.9107 0.869897 11.592C0.0505263 9.99378 -0.199368 8.17284 0.160037 6.41933Z" fill="#F8BD00"/>
<path d="M8.16073 6.50146H15.8427C16.1053 7.91406 16.0343 9.36684 15.6349 10.7483C15.2674 12.0187 14.5534 13.1669 13.5699 14.0694C12.7064 13.4093 11.8391 12.7542 10.9756 12.094C11.4037 11.811 11.7691 11.4463 12.0499 11.0217C12.3306 10.597 12.521 10.1212 12.6096 9.62275H8.16073C8.15944 8.58317 8.16073 7.54232 8.16073 6.50146Z" fill="#587DBD"/>
<path d="M0.867188 11.592C1.75946 10.9175 2.6513 10.2396 3.54271 9.55835C3.88759 10.5501 4.54349 11.4097 5.41674 12.0144C5.96134 12.3917 6.58026 12.6536 7.23399 12.7833C7.87809 12.9007 8.53877 12.9007 9.18287 12.7833C9.82514 12.677 10.4376 12.44 10.9808 12.0878C11.8442 12.7479 12.7115 13.403 13.575 14.0632C12.6301 14.9052 11.4782 15.4922 10.2322 15.7668C8.85687 16.0836 7.42361 16.0684 6.05562 15.7225C4.97367 15.4394 3.96305 14.9404 3.08711 14.2567C2.16007 13.5354 1.40285 12.6264 0.867188 11.592Z" fill="#319F43"/>
</svg>
